<svg xmlns="http://www.w3.org/2000/svg" width="1080" height="460" viewBox="0 0 1080 460" role="img" aria-label="Lingbot-World DiT runtime by GPU and method">
<rect width="100%" height="100%" fill="#eeeeee"/>
<line x1="90" y1="60" x2="90" y2="380" stroke="#333" stroke-width="1.4"/>
<line x1="90" y1="380" x2="1040" y2="380" stroke="#333" stroke-width="1.4"/>
<line x1="86" y1="380" x2="1040" y2="380" stroke="#b7b7b7" stroke-width="1.2" stroke-dasharray="7,5"/>
<text x="78" y="385" text-anchor="end" font-size="24" font-family="Times New Roman, serif" fill="#333">0</text>
<line x1="86" y1="300" x2="1040" y2="300" stroke="#b7b7b7" stroke-width="1.2" stroke-dasharray="7,5"/>
<text x="78" y="305" text-anchor="end" font-size="24" font-family="Times New Roman, serif" fill="#333">500</text>
<line x1="86" y1="220" x2="1040" y2="220" stroke="#b7b7b7" stroke-width="1.2" stroke-dasharray="7,5"/>
<text x="78" y="225" text-anchor="end" font-size="24" font-family="Times New Roman, serif" fill="#333">1000</text>
<line x1="86" y1="140" x2="1040" y2="140" stroke="#b7b7b7" stroke-width="1.2" stroke-dasharray="7,5"/>
<text x="78" y="145" text-anchor="end" font-size="24" font-family="Times New Roman, serif" fill="#333">1500</text>
<line x1="86" y1="60" x2="1040" y2="60" stroke="#b7b7b7" stroke-width="1.2" stroke-dasharray="7,5"/>
<text x="78" y="65" text-anchor="end" font-size="24" font-family="Times New Roman, serif" fill="#333">2000</text>
<text x="24" y="220" transform="rotate(-90, 24, 220)" text-anchor="middle" font-size="28" font-family="Times New Roman, serif" fill="#222">DiT (ms)</text>

<rect x="227" y="68" width="66" height="312" fill="#3b82f6"/>
<text x="260" y="60.6" text-anchor="middle" font-size="21" font-family="Times New Roman, serif" fill="#222">1950</text>
<rect x="307" y="254.72" width="66" height="125.28" fill="#2fbf71"/>
<text x="340" y="247.32" text-anchor="middle" font-size="21" font-family="Times New Roman, serif" fill="#222">783</text>
<text x="300" y="410" text-anchor="middle" font-size="22" font-family="Times New Roman, serif" fill="#222">H100</text>

<rect x="467" y="201.92" width="66" height="178.08" fill="#3b82f6"/>
<text x="500" y="194.52" text-anchor="middle" font-size="21" font-family="Times New Roman, serif" fill="#222">1113</text>
<rect x="547" y="286.4" width="66" height="93.6" fill="#2fbf71"/>
<text x="580" y="279.0" text-anchor="middle" font-size="21" font-family="Times New Roman, serif" fill="#222">585</text>
<text x="540" y="410" text-anchor="middle" font-size="22" font-family="Times New Roman, serif" fill="#222">GB200</text>

<rect x="707" y="214.88" width="66" height="165.12" fill="#3b82f6"/>
<text x="740" y="207.48" text-anchor="middle" font-size="21" font-family="Times New Roman, serif" fill="#222">1032</text>
<rect x="787" y="298.56" width="66" height="81.44" fill="#2fbf71"/>
<text x="820" y="291.16" text-anchor="middle" font-size="21" font-family="Times New Roman, serif" fill="#222">509</text>
<text x="780" y="410" text-anchor="middle" font-size="22" font-family="Times New Roman, serif" fill="#222">GB300</text>

<rect x="790" y="22" width="238" height="98" fill="#efefef" stroke="#b8b8b8" stroke-width="1.2" rx="8"/>
<rect x="812" y="42" width="14" height="14" fill="#3b82f6" stroke="#666" stroke-width="0.7"/>
<text x="838" y="57" font-size="24" font-family="Times New Roman, serif" fill="#222">official</text>
<rect x="812" y="80" width="14" height="14" fill="#2fbf71" stroke="#666" stroke-width="0.7"/>
<text x="838" y="95" font-size="24" font-family="Times New Roman, serif" fill="#222">flashdreams</text>
</svg>
